<?xml version="1.0" encoding="UTF-8" standalone="no"?>
<svg
   xmlns:dc="http://purl.org/dc/elements/1.1/"
   xmlns:cc="http://creativecommons.org/ns#"
   xmlns:rdf="http://www.w3.org/1999/02/22-rdf-syntax-ns#"
   xmlns:svg="http://www.w3.org/2000/svg"
   xmlns="http://www.w3.org/2000/svg"
   id="svg11"
   xml:space="preserve"
   viewBox="250 330 520 100"
   y="0px"
   x="0px"
   version="1.1"><metadata
     id="metadata17"><rdf:RDF><cc:Work
         rdf:about=""><dc:format>image/svg+xml</dc:format><dc:type
           rdf:resource="http://purl.org/dc/dcmitype/StillImage" /></cc:Work></rdf:RDF></metadata><defs
     id="defs15" /><g
     style="stroke-width:0;stroke-miterlimit:2"
     transform="matrix(1.3389,0,0,1.3389,-173.53,-130.15)"
     stroke-miterlimit="2"
     id="logo-group"><path
       d="m 371.75,352.95 c 0.17998,-0.99 -0.36,-1.71 -1.44,-1.71 h -36.99 c -0.90001,0 -1.44,0.54 -1.62,1.44 l -10.89,61.2 c -0.09,0.99 0.35998,1.71 1.44,1.71 h 38.43 c 0.99,0 1.53,-0.45 1.71,-1.44 l 1.62,-9.81 c 0.09,-0.99 -0.45001,-1.71 -1.44,-1.71 H 337.1 l 2.34,-13.41 h 21.69 c 0.90001,0 1.44,-0.54 1.62,-1.44 l 1.71,-9.45 c 0.18,-1.08 -0.35998,-1.71 -1.35,-1.71 h -21.42 l 2.25,-12.51 h 24.48 c 0.90001,0 1.44,-0.54 1.62,-1.44 z"
       style="font-variant-ligatures:none;fill:#2A2B7D"
       id="path128093" /><path
       d="m 404.29,412.89 c 0.99,-0.54 1.17,-1.26 0.72,-2.16 l -3.51,-7.74 c -0.45,-0.9 -1.26,-1.08 -2.16,-0.54 -2.88,1.71 -5.94,2.61 -8.46,2.61 -4.41,0 -6.84,-2.79 -5.76,-8.28 l 1.89,-10.62 c 0.81,-4.41 3.69,-6.93 8.46,-6.93 2.52,0 4.95,0.72 6.93,1.89 0.9,0.54 1.53,0.45 2.16,-0.27 l 5.31,-6.84 c 0.54,-0.81 0.45,-1.62 -0.27,-2.16 -3.6,-2.61 -8.01,-4.32 -13.68,-4.32 -11.43,0 -20.43,5.85 -22.41,17.19 l -1.98,11.16 c -2.25,12.78 5.13,20.88 17.28,20.88 5.4,0 10.62,-1.17 15.48,-3.87 z"
       style="font-variant-ligatures:none;fill:#2A2B7D"
       id="path128095" /><path
       d="m 431.67,369.42 2.88,-16.47 c 0.17999,-0.99 -0.36,-1.71 -1.35,-1.71 h -10.35 c -0.99,0 -1.53,0.54 -1.62,1.44 l -10.89,61.2 c -0.09,0.99 0.45,1.71 1.44,1.71 h 10.35 c 0.99002,0 1.53,-0.54 1.71,-1.44 l 5.85,-33.3 c 1.62,-0.81 3.87,-1.53 6.03,-1.53 4.86,0 6.57,2.7 5.58,7.92 l -4.59,26.64 c -0.17998,0.99 0.36,1.71 1.44,1.71 h 10.35 c 0.90002,0 1.53,-0.54 1.62,-1.44 l 4.5,-25.29 c 2.34,-13.32 -3.6,-21.33 -14.13,-21.33 -3.51,0 -6.39,0.72 -8.82,1.89 z"
       style="font-variant-ligatures:none;fill:#2A2B7D"
       id="path128097" /><path
       d="m 501.77,398.94 2.07,-11.34 c 1.89,-10.98 -5.31,-20.07 -17.64,-20.07 -12.51,0 -21.33,6.75 -23.31,17.64 L 461,396.33 c -2.07,11.43 5.22,20.43 17.28,20.43 13.23,0 21.42,-6.48 23.49,-17.82 z m -27.27,-1.26 2.07,-11.61 c 0.72,-4.05 3.78,-6.75 8.1,-6.75 4.32,0 6.21,3.33 5.49,7.38 l -2.07,11.52 c -0.72,4.23 -3.6,6.75 -8.28,6.75 -4.23,0 -6.12,-2.88 -5.31,-7.29 z"
       style="font-variant-ligatures:none;fill:#2A2B7D"
       id="path128099" /><path
       d="m 531.93,415.59 c 15.12,0 25.38,-6.03 28.44,-23.76 l 2.61,-14.85 c 3.06,-17.82 -7.2,-25.74 -20.34,-25.74 h -21.15 c -0.9,0 -1.53,0.54 -1.62,1.44 l -10.8,61.2 c -0.18,0.99 0.36,1.71 1.35,1.71 z m 0.09,-51.3 h 9 c 6.39,0 9,3.15 7.65,10.89 l -2.79,16.02 c -1.44,8.01 -5.4,11.34 -11.7,11.34 h -8.91 z"
       style="font-variant-ligatures:none;fill:#2fb282"
       id="path128101" /><path
       d="m 569.6,384.81 -2.34,13.05 c -2.07,11.7 6.12,18.9 17.91,18.9 7.83,0 13.95,-2.16 18.81,-5.49 0.80999,-0.45 0.89999,-1.26 0.53999,-2.16 l -3.69,-6.93 c -0.45,-0.99 -1.17,-1.08 -2.07,-0.45 -3.6,2.16 -7.74,3.6 -11.7,3.6 -4.95,0 -7.11,-2.34 -6.21,-7.11 l 0.27,-1.26 h 25.02 c 0.90001,0 1.44,-0.45 1.62,-1.35 l 1.53,-8.73 c 2.43,-13.23 -5.76,-19.35 -17.28,-19.35 -10.89,0 -20.25,5.49 -22.41,17.28 z m 26.28,3.15 h -13.14 l 0.45,-2.43 c 0.81001,-4.23 3.78,-6.57 7.65,-6.57 4.59,0 6.12,3.15 5.49,6.75 z"
       style="font-variant-ligatures:none;fill:#2fb282"
       id="path128103" /><path
       d="m 650.83,402.81 c 1.89,-10.53 -6.75,-14.85 -13.68,-16.38 -4.32,-0.99 -7.2,-1.8 -6.66,-4.5 0.36001,-2.25 2.43,-2.97 5.76,-2.97 3.78,0 7.2,0.81 9.99,2.43 0.89999,0.45 1.62,0.36 2.16,-0.45 l 5.31,-7.11 c 0.63,-0.81 0.54,-1.62 -0.36,-2.16 -4.86,-2.79 -9.63,-4.14 -15.84,-4.14 -10.89,0 -18.45,3.87 -20.34,12.96 -1.98,9.72 5.04,15.03 13.86,16.83 3.6,0.81 6.75,1.53 6.12,4.32 -0.45,2.07 -2.61,3.42 -6.93,3.42 -4.23,0 -8.19,-1.26 -11.7,-3.87 -0.81,-0.54 -1.53,-0.45 -2.16,0.36 l -5.13,7.02 c -0.54,0.72 -0.54,1.53 0.27,2.16 4.95,4.05 10.8,6.03 18.27,6.03 11.25,0 19.26,-4.41 21.06,-13.95 z"
       style="font-variant-ligatures:none;fill:#2fb282"
       id="path128105" /><path
       d="m 689.56,368.79 c -0.81,0 -1.44,0.18 -1.89,0.81 l -12.78,13.95 5.4,-30.6 c 0.18,-0.99 -0.36,-1.71 -1.44,-1.71 h -10.44 c -0.9,0 -1.44,0.54 -1.62,1.44 l -10.89,61.2 c -0.09,0.99 0.45001,1.71 1.44,1.71 h 10.44 c 0.9,0 1.53,-0.54 1.62,-1.44 l 2.16,-11.97 3.96,-3.78 6.75,15.93 c 0.27,0.9 0.9,1.26 1.8,1.26 h 11.43 c 1.17,0 1.62,-0.72 1.17,-1.8 l -11.61,-25.02 17.64,-18.09 c 0.9,-0.99 0.54,-1.89 -0.81,-1.89 z"
       style="font-variant-ligatures:none;fill:#2fb282"
       id="path128107" /></g></svg>